<svg width="124" height="41" viewBox="0 0 124 41" fill="none" xmlns="http://www.w3.org/2000/svg">
<path d="M62.3428 14.9607C63.4859 9.71942 70.6437 5.96189 82.7184 3.61782C94.7931 1.27374 105.253 2.55552 106.079 6.47109C106.16 6.86615 106.142 7.27 106.033 7.67385C107.43 6.34818 108.528 4.7679 109.018 2.85402C109.689 8.17427 104.618 12.4673 100.336 14.8992C96.4987 17.0677 92.1441 18.4197 87.8259 19.3766C84.0701 20.2107 80.1783 20.755 76.2864 20.834L79.2983 28.393C82.3102 35.2584 89.1867 35.3988 89.1867 35.3988C80.396 36.4787 76.8126 29.2533 76.8126 29.2533L72.8753 20.7638C71.6688 20.7023 70.4713 20.6057 69.2738 20.4389C69.1921 20.4302 69.1196 20.4126 69.0379 20.4038C69.6548 21.8963 70.7707 24.5828 72.322 28.1647C76.5858 38.0151 90.5656 37.4883 99.1658 34.5648C100.835 33.8976 102.305 33.1689 103.511 32.4402C105.026 31.5272 106.187 30.658 106.94 29.9996C107.34 29.6835 107.594 29.4026 107.802 29.227C108.002 29.0426 108.102 28.9548 108.102 28.9548C108.102 28.9548 108.029 29.0865 107.893 29.3411C107.748 29.587 107.566 29.9732 107.258 30.4298C106.677 31.3516 105.707 32.6246 104.264 33.9503C102.822 35.2672 100.917 36.6279 98.6215 37.7517C96.3263 38.8491 93.6682 39.727 90.8559 40.1133C90.611 40.1221 87.8259 40.6576 83.7072 40.2714C81.657 40.0782 79.2801 39.5954 76.8761 38.6384C75.6786 38.1643 74.472 37.5673 73.338 36.8299C72.1859 36.11 71.1063 35.2408 70.1356 34.2751C68.2396 32.3085 66.7246 30.1313 65.518 28.0067C64.2752 25.8909 63.2591 23.8629 62.3519 22.0894C61.8983 21.2027 61.481 20.3775 61.1 19.6312C60.7008 18.8938 60.3561 18.2266 60.0658 17.6296C59.9841 17.4715 59.839 17.2696 59.6938 17.0589C59.3763 16.6112 59.0497 16.1722 58.705 15.742C58.206 15.1011 57.6345 14.1793 57.5256 13.4857H58.7776C58.959 14.0564 59.1495 14.4778 59.3672 14.8026C60.0567 15.8123 61.5536 15.8913 62.3428 14.9607Z" fill="#FFD28B"/>
<path d="M116.321 5.37372C113.79 5.94438 111.613 7.70023 110.116 9.69313C109.191 10.931 106.968 14.592 108.556 16.102C109.408 14.7588 109.735 13.2839 110.787 11.9933C112.066 10.4306 113.763 9.00835 115.713 8.29722C117.346 7.70023 119.424 7.81437 120.431 9.38586C121.401 10.9047 120.313 12.4059 119.242 13.5824C116.811 16.2776 113.59 18.2617 110.814 20.597C108.32 22.6953 104.373 25.7417 104.156 29.2095C105.126 27.5063 107.05 26.4089 108.692 25.3817C110.887 24.0121 113.128 22.704 115.242 21.2116C118.498 18.9289 122.653 16.0669 123.824 12.1864C124.93 7.90216 120.648 4.39044 116.321 5.37372Z" fill="#FFD28B"/>
<path d="M0 1.37019C0.762042 1.40531 1.75996 1.44042 2.99374 1.47554C4.22752 1.51066 5.44316 1.52822 6.64066 1.52822C8.34618 1.52822 9.97913 1.51066 11.5395 1.47554C13.0999 1.44042 14.2066 1.42287 14.8598 1.42287C18.67 1.42287 21.5368 2.19545 23.46 3.7406C25.3833 5.28576 26.3449 7.26988 26.3449 9.69296C26.3449 10.9221 26.0818 12.1248 25.5556 13.3012C25.0295 14.4777 24.1586 15.5487 22.9429 16.5145C21.7273 17.4802 20.1034 18.2615 18.0713 18.8585V18.9639C20.938 19.3151 23.1788 19.9735 24.7936 20.9392C26.4084 21.905 27.5424 23.0375 28.1956 24.3368C28.8487 25.6362 29.1753 27.0057 29.1753 28.4455C29.1753 31.4305 28.0232 33.8799 25.7189 35.7938C23.4147 37.7077 20.2123 38.6646 16.1118 38.6646C15.3134 38.6646 14.1159 38.6383 12.5193 38.5856C10.9226 38.5329 8.99936 38.5066 6.74952 38.5066C5.47945 38.5066 4.22752 38.5154 2.99374 38.5329C1.75996 38.5505 0.762042 38.5944 0 38.6646V37.6111C1.23378 37.5409 2.16819 37.4004 2.80323 37.1897C3.43827 36.979 3.86464 36.5576 4.08237 35.9255C4.3001 35.2934 4.40896 34.3452 4.40896 33.081V6.95382C4.40896 5.65449 4.3001 4.69754 4.08237 4.08299C3.86464 3.46844 3.43827 3.04704 2.80323 2.81878C2.16819 2.59051 1.23378 2.45883 0 2.42371V1.37019ZM13.499 2.42371C11.8298 2.42371 10.7412 2.7222 10.2331 3.31919C9.72511 3.91618 9.4711 5.12773 9.4711 6.95382V33.081C9.4711 34.9071 9.73419 36.0923 10.2604 36.6366C10.7865 37.1809 11.8842 37.4531 13.5535 37.4531C17.1097 37.4531 19.6952 36.6542 21.31 35.0563C22.9248 33.4585 23.7322 31.1847 23.7322 28.2348C23.7322 25.5308 22.9792 23.4413 21.4733 21.9664C19.9673 20.4915 17.4907 19.754 14.0434 19.754H8.4369V18.8585H13.118C15.259 18.8585 16.9101 18.4635 18.0713 17.6733C19.2325 16.8832 20.0308 15.8297 20.4663 14.5128C20.9017 13.1959 21.1195 11.7824 21.1195 10.2724C21.1195 7.67372 20.5298 5.71594 19.3504 4.39905C18.1711 3.08216 16.2206 2.42371 13.499 2.42371Z" fill="#FFD28B"/>
<path d="M45.2878 0.632797C47.6828 0.632797 49.6514 0.975191 51.1936 1.65998C52.7358 2.34476 54.1057 3.14367 55.3032 4.05672C56.0289 4.58348 56.5823 4.64493 56.9633 4.24108C57.3444 3.83724 57.6075 2.8803 57.7526 1.37026H59.0045C58.932 2.66959 58.8775 4.24987 58.8412 6.11108C58.805 7.97229 58.1518 13.8369 61.1818 15.5927C60.6465 15.7507 60.0659 15.6366 59.6396 15.2767L57.5349 13.4857C57.2809 11.9756 57.045 10.7729 56.8273 9.87739C56.6095 8.9819 56.3465 8.2181 56.038 7.586C55.7296 6.95389 55.3213 6.32177 54.8133 5.68967C53.6884 4.24986 52.2732 3.20513 50.5676 2.55546C48.8621 1.9058 47.0659 1.58096 45.1789 1.58096C43.4008 1.58096 41.7951 2.01115 40.3617 2.87152C38.9283 3.73189 37.6946 4.96977 36.6604 6.58515C35.6262 8.20054 34.8278 10.1495 34.2654 12.4322C33.7029 14.7148 33.4217 17.2783 33.4217 20.1228C33.4217 23.0727 33.7301 25.6801 34.347 27.9452C34.9639 30.2102 35.8257 32.1153 36.9325 33.6605C38.0393 35.2056 39.3456 36.3733 40.8516 37.1634C42.3575 37.9536 43.9814 38.3486 45.7232 38.3486C47.3562 38.3486 49.0617 38.0326 50.8398 37.4005C52.6179 36.7684 54.015 35.75 55.031 34.3453C55.8294 33.3269 56.3827 32.2207 56.6912 31.0267C56.9996 29.8327 57.2809 28.1646 57.5349 26.0225H58.7868C58.7868 29.2182 58.805 31.7905 58.8412 33.7395C58.8775 35.6885 58.932 37.3302 59.0045 38.6647H57.7526C57.6075 37.1546 57.3625 36.2065 57.0178 35.8202C56.673 35.4339 56.1015 35.4866 55.3032 35.9782C53.9605 36.8913 52.5362 37.6902 51.0303 38.375C49.5244 39.0597 47.592 39.4021 45.2333 39.4021C41.786 39.4021 38.765 38.6471 36.1705 37.1371C33.5759 35.627 31.5619 33.4498 30.1286 30.6053C28.6952 27.7608 27.9785 24.3369 27.9785 20.3335C27.9785 16.4004 28.7224 12.9589 30.2102 10.0091C31.698 7.05924 33.7392 4.75906 36.3338 3.10856C38.9283 1.45805 41.913 0.632797 45.2878 0.632797Z" fill="#FFD28B"/>
</svg>
